<svg xmlns="http://www.w3.org/2000/svg" viewBox="0 0 1080 620" role="img" aria-labelledby="title desc">
<title id="title">Tiny Shakespeare CLM model development trajectory</title>
<desc id="desc">Full-train BPC falls from 4.7744 to 2.3100 across 463 model commits while Python line count rises from 278 to 60,878.</desc>
<style>
  .bg { fill: #ffffff; }
  .panel { fill: #fbfcfe; stroke: #d8e0ea; stroke-width: 1; }
  .grid { stroke: #e8edf4; stroke-width: 1; }
  .grid-v { stroke: #f1f4f8; stroke-width: 1; }
  .axis { stroke: #aebccd; stroke-width: 1.2; }
  .title { font: 800 26px system-ui, -apple-system, Segoe UI, sans-serif; fill: #132238; }
  .subtitle { font: 14px system-ui, -apple-system, Segoe UI, sans-serif; fill: #5d6b7a; }
  .label { font: 700 14px system-ui, -apple-system, Segoe UI, sans-serif; fill: #26384d; }
  .tick { font: 12px system-ui, -apple-system, Segoe UI, sans-serif; fill: #718096; }
  .note { font: 12px system-ui, -apple-system, Segoe UI, sans-serif; fill: #667383; }
  .legend { font: 13px system-ui, -apple-system, Segoe UI, sans-serif; fill: #26384d; }
  .card { fill: #ffffff; stroke: #d8e0ea; stroke-width: 1; }
  .card-label { font: 700 12px system-ui, -apple-system, Segoe UI, sans-serif; fill: #2563eb; }
  .card-value { font: 800 19px system-ui, -apple-system, Segoe UI, sans-serif; fill: #132238; }
  .card-note { font: 12px system-ui, -apple-system, Segoe UI, sans-serif; fill: #667383; }
</style>
<rect width="1080" height="620" class="bg"/>
<rect x="24" y="24" width="1032" height="572" rx="18" class="panel"/>
<text x="82" y="52" class="title">Model development trajectory</text>
<text x="82" y="74" class="subtitle">Full-train replay across all model commits; lower BPC is better.</text>
<g><rect x="82" y="82" width="292" height="72" rx="10" class="card"/><text x="100" y="106" class="card-label">Loss</text><text x="100" y="130" class="card-value">4.7744 → 2.3100</text><text x="100" y="147" class="card-note">51.6% lower full-train BPC</text></g><g><rect x="394" y="82" width="292" height="72" rx="10" class="card"/><text x="412" y="106" class="card-label">Model size</text><text x="412" y="130" class="card-value">278 → 60,878 LOC</text><text x="412" y="147" class="card-note">219x growth in Python code</text></g><g><rect x="706" y="82" width="292" height="72" rx="10" class="card"/><text x="724" y="106" class="card-label">Replay</text><text x="724" y="130" class="card-value">463 commits</text><text x="724" y="147" class="card-note">every model revision evaluated</text></g>

<text x="82" y="184" class="label">Full-train bits per character</text>
<text x="1008" y="184" text-anchor="end" class="note">best 2.3099 at commit 462; final 2.3100</text>
<line x1="82.00" y1="206" x2="82.00" y2="411" class="grid-v"/><line x1="82.00" y1="468" x2="82.00" y2="554" class="grid-v"/><text x="82.00" y="586" text-anchor="middle" class="tick">1</text><line x1="280.43" y1="206" x2="280.43" y2="411" class="grid-v"/><line x1="280.43" y1="468" x2="280.43" y2="554" class="grid-v"/><text x="280.43" y="586" text-anchor="middle" class="tick">100</text><line x1="480.86" y1="206" x2="480.86" y2="411" class="grid-v"/><line x1="480.86" y1="468" x2="480.86" y2="554" class="grid-v"/><text x="480.86" y="586" text-anchor="middle" class="tick">200</text><line x1="681.29" y1="206" x2="681.29" y2="411" class="grid-v"/><line x1="681.29" y1="468" x2="681.29" y2="554" class="grid-v"/><text x="681.29" y="586" text-anchor="middle" class="tick">300</text><line x1="881.73" y1="206" x2="881.73" y2="411" class="grid-v"/><line x1="881.73" y1="468" x2="881.73" y2="554" class="grid-v"/><text x="881.73" y="586" text-anchor="middle" class="tick">400</text><line x1="1008.00" y1="206" x2="1008.00" y2="411" class="grid-v"/><line x1="1008.00" y1="468" x2="1008.00" y2="554" class="grid-v"/><text x="1008.00" y="586" text-anchor="middle" class="tick">463</text>
<line x1="82" y1="213.59" x2="1008" y2="213.59" class="grid"/><text x="68" y="217.59" text-anchor="end" class="tick">4.8</text><line x1="82" y1="243.96" x2="1008" y2="243.96" class="grid"/><text x="68" y="247.96" text-anchor="end" class="tick">4.4</text><line x1="82" y1="274.33" x2="1008" y2="274.33" class="grid"/><text x="68" y="278.33" text-anchor="end" class="tick">4.0</text><line x1="82" y1="304.70" x2="1008" y2="304.70" class="grid"/><text x="68" y="308.70" text-anchor="end" class="tick">3.6</text><line x1="82" y1="335.07" x2="1008" y2="335.07" class="grid"/><text x="68" y="339.07" text-anchor="end" class="tick">3.2</text><line x1="82" y1="365.44" x2="1008" y2="365.44" class="grid"/><text x="68" y="369.44" text-anchor="end" class="tick">2.8</text><line x1="82" y1="395.81" x2="1008" y2="395.81" class="grid"/><text x="68" y="399.81" text-anchor="end" class="tick">2.4</text>
<line x1="82" y1="206" x2="82" y2="411" class="axis"/>
<line x1="82" y1="411" x2="1008" y2="411" class="axis"/>
<path d="M 82.00 215.54 L 84.00 232.72 L 86.01 244.22 L 88.01 256.18 L 90.02 278.10 L 92.02 283.79 L 94.03 293.12 L 96.03 293.28 L 98.03 301.95 L 100.04 302.95 L 102.04 303.90 L 104.05 306.59 L 106.05 306.75 L 108.06 308.84 L 110.06 309.23 L 112.06 309.50 L 114.07 309.65 L 116.07 311.09 L 118.08 312.08 L 120.08 312.14 L 122.09 312.85 L 124.09 313.13 L 126.10 314.52 L 128.10 315.52 L 130.10 315.73 L 132.11 316.03 L 134.11 316.47 L 136.12 316.56 L 138.12 317.12 L 140.13 317.34 L 142.13 317.82 L 144.13 317.86 L 146.14 318.07 L 148.14 319.38 L 150.15 319.59 L 152.15 319.69 L 154.16 320.49 L 156.16 320.52 L 158.16 322.36 L 160.17 324.72 L 162.17 324.80 L 164.18 324.84 L 166.18 324.85 L 168.19 324.85 L 170.19 325.44 L 172.19 328.27 L 174.20 328.35 L 176.20 328.54 L 178.21 331.35 L 180.21 331.36 L 182.22 331.37 L 184.22 333.12 L 186.23 333.30 L 188.23 334.14 L 190.23 334.15 L 192.24 339.76 L 194.24 340.15 L 196.25 340.50 L 198.25 341.04 L 200.26 341.08 L 202.26 343.44 L 204.26 345.03 L 206.27 345.07 L 208.27 345.11 L 210.28 345.48 L 212.28 345.61 L 214.29 348.46 L 216.29 349.71 L 218.29 349.99 L 220.30 350.08 L 222.30 350.15 L 224.31 350.34 L 226.31 350.87 L 228.32 351.61 L 230.32 351.80 L 232.32 351.82 L 234.33 352.08 L 236.33 352.59 L 238.34 352.80 L 240.34 352.90 L 242.35 353.01 L 244.35 353.15 L 246.35 353.24 L 248.36 353.24 L 250.36 353.38 L 252.37 353.49 L 254.37 353.38 L 256.38 355.56 L 258.38 356.03 L 260.39 356.15 L 262.39 356.30 L 264.39 358.44 L 266.40 359.47 L 268.40 359.73 L 270.41 360.32 L 272.41 360.89 L 274.42 361.30 L 276.42 361.78 L 278.42 361.82 L 280.43 362.45 L 282.43 362.99 L 284.44 363.20 L 286.44 363.23 L 288.45 363.24 L 290.45 363.25 L 292.45 363.27 L 294.46 363.27 L 296.46 363.49 L 298.47 363.61 L 300.47 363.65 L 302.48 363.71 L 304.48 363.71 L 306.48 363.74 L 308.49 363.74 L 310.49 363.75 L 312.50 363.77 L 314.50 364.06 L 316.51 364.07 L 318.51 364.12 L 320.52 364.21 L 322.52 364.21 L 324.52 364.28 L 326.53 365.60 L 328.53 366.26 L 330.54 366.81 L 332.54 367.08 L 334.55 367.63 L 336.55 368.56 L 338.55 368.96 L 340.56 369.77 L 342.56 370.52 L 344.57 371.15 L 346.57 371.15 L 348.58 371.22 L 350.58 371.24 L 352.58 371.37 L 354.59 371.49 L 356.59 371.49 L 358.60 371.57 L 360.60 371.63 L 362.61 372.25 L 364.61 373.04 L 366.61 373.16 L 368.62 373.20 L 370.62 373.31 L 372.63 373.37 L 374.63 373.37 L 376.64 373.49 L 378.64 373.65 L 380.65 373.72 L 382.65 373.77 L 384.65 373.78 L 386.66 373.78 L 388.66 373.77 L 390.67 373.77 L 392.67 373.77 L 394.68 374.34 L 396.68 374.37 L 398.68 374.37 L 400.69 374.46 L 402.69 374.46 L 404.70 374.62 L 406.70 374.63 L 408.71 374.88 L 410.71 374.89 L 412.71 374.89 L 414.72 374.89 L 416.72 375.10 L 418.73 375.13 L 420.73 375.14 L 422.74 375.35 L 424.74 375.38 L 426.74 375.72 L 428.75 375.73 L 430.75 375.73 L 432.76 375.88 L 434.76 375.88 L 436.77 375.90 L 438.77 375.90 L 440.77 375.90 L 442.78 376.02 L 444.78 376.04 L 446.79 376.04 L 448.79 376.04 L 450.80 376.05 L 452.80 376.05 L 454.81 376.37 L 456.81 376.94 L 458.81 376.94 L 460.82 377.22 L 462.82 377.25 L 464.83 377.43 L 466.83 377.43 L 468.84 377.55 L 470.84 377.57 L 472.84 377.57 L 474.85 377.58 L 476.85 377.58 L 478.86 377.68 L 480.86 377.73 L 482.87 377.73 L 484.87 377.74 L 486.87 377.76 L 488.88 377.78 L 490.88 377.81 L 492.89 377.81 L 494.89 377.81 L 496.90 377.81 L 498.90 377.81 L 500.90 377.81 L 502.91 377.81 L 504.91 377.81 L 506.92 378.43 L 508.92 378.43 L 510.93 378.43 L 512.93 378.51 L 514.94 378.52 L 516.94 378.58 L 518.94 378.74 L 520.95 378.83 L 522.95 378.85 L 524.96 378.91 L 526.96 378.91 L 528.97 378.90 L 530.97 378.91 L 532.97 378.90 L 534.98 378.91 L 536.98 378.91 L 538.99 378.97 L 540.99 378.97 L 543.00 378.97 L 545.00 378.97 L 547.00 378.97 L 549.01 378.97 L 551.01 379.00 L 553.02 379.43 L 555.02 379.46 L 557.03 379.48 L 559.03 379.48 L 561.03 379.48 L 563.04 379.48 L 565.04 379.48 L 567.05 379.48 L 569.05 379.52 L 571.06 379.54 L 573.06 379.55 L 575.06 379.59 L 577.07 383.07 L 579.07 383.66 L 581.08 384.53 L 583.08 385.13 L 585.09 385.49 L 587.09 385.60 L 589.10 385.94 L 591.10 385.94 L 593.10 385.97 L 595.11 386.08 L 597.11 386.08 L 599.12 386.68 L 601.12 386.93 L 603.13 387.17 L 605.13 387.17 L 607.13 387.17 L 609.14 387.21 L 611.14 387.23 L 613.15 387.24 L 615.15 387.38 L 617.16 387.43 L 619.16 387.43 L 621.16 387.43 L 623.17 387.47 L 625.17 387.48 L 627.18 387.68 L 629.18 387.88 L 631.19 388.41 L 633.19 388.43 L 635.19 388.52 L 637.20 388.66 L 639.20 388.78 L 641.21 388.78 L 643.21 388.77 L 645.22 388.79 L 647.22 388.92 L 649.23 389.20 L 651.23 389.22 L 653.23 389.25 L 655.24 389.25 L 657.24 389.34 L 659.25 389.34 L 661.25 390.00 L 663.26 392.03 L 665.26 392.11 L 667.26 392.12 L 669.27 392.42 L 671.27 392.47 L 673.28 392.47 L 675.28 392.50 L 677.29 392.52 L 679.29 392.51 L 681.29 392.53 L 683.30 392.54 L 685.30 392.76 L 687.31 392.91 L 689.31 393.04 L 691.32 393.04 L 693.32 393.04 L 695.32 393.04 L 697.33 393.13 L 699.33 393.14 L 701.34 393.68 L 703.34 393.68 L 705.35 393.77 L 707.35 393.83 L 709.35 393.83 L 711.36 393.83 L 713.36 394.74 L 715.37 394.82 L 717.37 394.85 L 719.38 394.86 L 721.38 394.87 L 723.39 394.87 L 725.39 394.92 L 727.39 394.87 L 729.40 394.87 L 731.40 394.93 L 733.41 394.94 L 735.41 394.96 L 737.42 394.98 L 739.42 395.09 L 741.42 395.11 L 743.43 395.11 L 745.43 395.12 L 747.44 395.12 L 749.44 395.13 L 751.45 395.35 L 753.45 395.72 L 755.45 396.22 L 757.46 396.18 L 759.46 396.18 L 761.47 397.46 L 763.47 397.47 L 765.48 397.49 L 767.48 397.49 L 769.48 397.49 L 771.49 397.49 L 773.49 397.49 L 775.50 397.58 L 777.50 397.62 L 779.51 397.64 L 781.51 397.62 L 783.52 397.63 L 785.52 397.80 L 787.52 397.82 L 789.53 397.83 L 791.53 397.83 L 793.54 397.83 L 795.54 397.88 L 797.55 397.89 L 799.55 397.90 L 801.55 397.90 L 803.56 397.90 L 805.56 397.91 L 807.57 397.96 L 809.57 397.99 L 811.58 398.05 L 813.58 398.08 L 815.58 398.08 L 817.59 398.14 L 819.59 398.25 L 821.60 398.25 L 823.60 398.25 L 825.61 398.24 L 827.61 398.26 L 829.61 398.27 L 831.62 398.34 L 833.62 398.35 L 835.63 398.38 L 837.63 398.50 L 839.64 398.51 L 841.64 398.56 L 843.65 398.61 L 845.65 398.61 L 847.65 398.60 L 849.66 398.71 L 851.66 398.73 L 853.67 398.75 L 855.67 398.92 L 857.68 398.92 L 859.68 398.91 L 861.68 399.12 L 863.69 399.14 L 865.69 399.16 L 867.70 399.35 L 869.70 400.04 L 871.71 400.04 L 873.71 400.04 L 875.71 400.06 L 877.72 400.08 L 879.72 400.14 L 881.73 400.24 L 883.73 400.29 L 885.74 400.31 L 887.74 400.30 L 889.74 400.30 L 891.75 400.30 L 893.75 400.33 L 895.76 400.52 L 897.76 400.69 L 899.77 400.81 L 901.77 401.56 L 903.77 401.70 L 905.78 401.71 L 907.78 401.74 L 909.79 401.74 L 911.79 401.75 L 913.80 401.76 L 915.80 401.76 L 917.81 401.77 L 919.81 401.78 L 921.81 401.81 L 923.82 401.81 L 925.82 401.81 L 927.83 401.82 L 929.83 401.86 L 931.84 401.95 L 933.84 401.97 L 935.84 402.04 L 937.85 402.10 L 939.85 402.10 L 941.86 402.21 L 943.86 402.34 L 945.87 402.33 L 947.87 402.34 L 949.87 402.37 L 951.88 402.40 L 953.88 402.40 L 955.89 402.40 L 957.89 402.39 L 959.90 402.44 L 961.90 402.43 L 963.90 402.44 L 965.91 402.46 L 967.91 402.46 L 969.92 402.46 L 971.92 402.46 L 973.93 402.47 L 975.93 402.47 L 977.94 402.47 L 979.94 402.47 L 981.94 402.47 L 983.95 402.47 L 985.95 402.48 L 987.96 402.50 L 989.96 402.50 L 991.97 402.50 L 993.97 402.50 L 995.97 402.51 L 997.98 402.51 L 999.98 402.53 L 1001.99 402.54 L 1003.99 402.65 L 1006.00 402.66 L 1008.00 402.65" fill="none" stroke="#2563eb" stroke-width="3.6" stroke-linejoin="round" stroke-linecap="round"/>
<circle cx="82.00" cy="215.54" r="4.5" fill="#2563eb"/>
<circle cx="1008.00" cy="402.65" r="4.5" fill="#2563eb"/>
<text x="91.00" y="206.54" class="note">4.7744</text>
<text x="999.00" y="393.65" text-anchor="end" class="note">2.3100</text>

<text x="82" y="446" class="label">Python lines in model</text>
<text x="1008" y="446" text-anchor="end" class="note">model package only</text>
<line x1="82" y1="554.00" x2="1008" y2="554.00" class="grid"/><text x="68" y="558.00" text-anchor="end" class="tick">0k</text><line x1="82" y1="527.54" x2="1008" y2="527.54" class="grid"/><text x="68" y="531.54" text-anchor="end" class="tick">20k</text><line x1="82" y1="501.08" x2="1008" y2="501.08" class="grid"/><text x="68" y="505.08" text-anchor="end" class="tick">40k</text><line x1="82" y1="474.62" x2="1008" y2="474.62" class="grid"/><text x="68" y="478.62" text-anchor="end" class="tick">60k</text>
<line x1="82" y1="468" x2="82" y2="554" class="axis"/>
<line x1="82" y1="554" x2="1008" y2="554" class="axis"/>
<path d="M 82.00 553.63 L 84.00 552.88 L 86.01 552.59 L 88.01 552.24 L 90.02 551.98 L 92.02 551.79 L 94.03 551.54 L 96.03 551.24 L 98.03 551.14 L 100.04 551.05 L 102.04 551.03 L 104.05 551.01 L 106.05 550.98 L 108.06 550.97 L 110.06 550.83 L 112.06 550.27 L 114.07 550.11 L 116.07 549.97 L 118.08 549.86 L 120.08 549.82 L 122.09 549.81 L 124.09 549.80 L 126.10 549.16 L 128.10 548.77 L 130.10 548.22 L 132.11 548.22 L 134.11 548.22 L 136.12 548.00 L 138.12 548.00 L 140.13 548.00 L 142.13 548.00 L 144.13 548.00 L 146.14 547.26 L 148.14 547.06 L 150.15 547.01 L 152.15 547.00 L 154.16 546.97 L 156.16 546.97 L 158.16 546.95 L 160.17 546.92 L 162.17 546.91 L 164.18 546.90 L 166.18 546.89 L 168.19 546.78 L 170.19 546.77 L 172.19 546.72 L 174.20 546.71 L 176.20 546.70 L 178.21 546.68 L 180.21 546.68 L 182.22 546.67 L 184.22 546.66 L 186.23 546.67 L 188.23 546.65 L 190.23 546.65 L 192.24 546.65 L 194.24 546.65 L 196.25 546.65 L 198.25 546.65 L 200.26 546.65 L 202.26 546.64 L 204.26 546.64 L 206.27 546.64 L 208.27 546.64 L 210.28 546.64 L 212.28 546.64 L 214.29 546.25 L 216.29 545.76 L 218.29 545.76 L 220.30 545.76 L 222.30 545.52 L 224.31 545.36 L 226.31 545.24 L 228.32 545.14 L 230.32 545.02 L 232.32 545.02 L 234.33 545.02 L 236.33 545.02 L 238.34 545.02 L 240.34 545.02 L 242.35 545.02 L 244.35 545.02 L 246.35 545.02 L 248.36 545.02 L 250.36 545.02 L 252.37 545.02 L 254.37 544.81 L 256.38 544.71 L 258.38 544.61 L 260.39 544.59 L 262.39 544.57 L 264.39 544.49 L 266.40 544.25 L 268.40 543.83 L 270.41 543.54 L 272.41 543.30 L 274.42 543.04 L 276.42 542.46 L 278.42 542.46 L 280.43 542.46 L 282.43 542.46 L 284.44 542.46 L 286.44 542.01 L 288.45 541.88 L 290.45 541.68 L 292.45 541.63 L 294.46 541.40 L 296.46 541.33 L 298.47 541.33 L 300.47 541.33 L 302.48 541.33 L 304.48 541.30 L 306.48 540.92 L 308.49 540.92 L 310.49 540.70 L 312.50 540.65 L 314.50 540.65 L 316.51 540.65 L 318.51 540.36 L 320.52 540.36 L 322.52 540.35 L 324.52 540.35 L 326.53 540.12 L 328.53 539.97 L 330.54 539.67 L 332.54 539.47 L 334.55 538.98 L 336.55 538.22 L 338.55 537.94 L 340.56 537.45 L 342.56 536.69 L 344.57 536.11 L 346.57 535.68 L 348.58 535.53 L 350.58 535.52 L 352.58 535.46 L 354.59 535.46 L 356.59 535.16 L 358.60 535.14 L 360.60 535.14 L 362.61 535.14 L 364.61 534.42 L 366.61 534.42 L 368.62 534.26 L 370.62 534.26 L 372.63 534.01 L 374.63 533.68 L 376.64 533.67 L 378.64 533.67 L 380.65 533.67 L 382.65 533.67 L 384.65 533.67 L 386.66 533.38 L 388.66 533.16 L 390.67 532.85 L 392.67 532.83 L 394.68 532.80 L 396.68 532.64 L 398.68 532.64 L 400.69 532.63 L 402.69 532.26 L 404.70 532.24 L 406.70 532.24 L 408.71 532.23 L 410.71 532.23 L 412.71 532.23 L 414.72 531.98 L 416.72 531.98 L 418.73 531.98 L 420.73 531.81 L 422.74 531.81 L 424.74 531.81 L 426.74 531.81 L 428.75 531.66 L 430.75 531.37 L 432.76 531.30 L 434.76 531.10 L 436.77 530.72 L 438.77 530.42 L 440.77 530.20 L 442.78 530.20 L 444.78 529.78 L 446.79 529.70 L 448.79 529.14 L 450.80 528.89 L 452.80 528.64 L 454.81 528.64 L 456.81 528.64 L 458.81 528.21 L 460.82 528.21 L 462.82 528.12 L 464.83 528.12 L 466.83 527.46 L 468.84 527.29 L 470.84 527.21 L 472.84 526.82 L 474.85 525.97 L 476.85 525.86 L 478.86 525.85 L 480.86 525.85 L 482.87 525.54 L 484.87 525.32 L 486.87 525.31 L 488.88 525.31 L 490.88 524.80 L 492.89 524.61 L 494.89 523.65 L 496.90 523.43 L 498.90 523.31 L 500.90 522.89 L 502.91 522.56 L 504.91 522.49 L 506.92 522.16 L 508.92 521.37 L 510.93 521.15 L 512.93 520.89 L 514.94 520.87 L 516.94 520.86 L 518.94 520.24 L 520.95 519.97 L 522.95 519.74 L 524.96 519.47 L 526.96 518.98 L 528.97 518.68 L 530.97 518.52 L 532.97 518.26 L 534.98 518.26 L 536.98 518.08 L 538.99 518.08 L 540.99 517.71 L 543.00 517.44 L 545.00 517.25 L 547.00 516.98 L 549.01 516.61 L 551.01 516.60 L 553.02 516.60 L 555.02 516.22 L 557.03 515.76 L 559.03 515.36 L 561.03 514.96 L 563.04 514.49 L 565.04 514.34 L 567.05 513.61 L 569.05 513.33 L 571.06 512.99 L 573.06 512.70 L 575.06 512.46 L 577.07 512.45 L 579.07 512.43 L 581.08 512.43 L 583.08 512.41 L 585.09 511.97 L 587.09 511.94 L 589.10 511.94 L 591.10 511.54 L 593.10 511.31 L 595.11 511.30 L 597.11 511.30 L 599.12 511.30 L 601.12 511.30 L 603.13 511.04 L 605.13 510.53 L 607.13 510.53 L 609.14 510.53 L 611.14 510.10 L 613.15 509.99 L 615.15 509.98 L 617.16 509.98 L 619.16 509.50 L 621.16 509.49 L 623.17 509.49 L 625.17 509.17 L 627.18 509.17 L 629.18 508.80 L 631.19 508.80 L 633.19 508.44 L 635.19 508.44 L 637.20 507.80 L 639.20 507.80 L 641.21 507.80 L 643.21 507.80 L 645.22 507.80 L 647.22 507.80 L 649.23 507.80 L 651.23 507.80 L 653.23 507.80 L 655.24 507.80 L 657.24 507.80 L 659.25 507.29 L 661.25 507.21 L 663.26 506.46 L 665.26 506.46 L 667.26 506.46 L 669.27 506.13 L 671.27 505.32 L 673.28 504.91 L 675.28 504.57 L 677.29 503.95 L 679.29 503.56 L 681.29 503.29 L 683.30 502.92 L 685.30 502.67 L 687.31 502.44 L 689.31 502.28 L 691.32 501.98 L 693.32 501.67 L 695.32 501.40 L 697.33 501.16 L 699.33 500.73 L 701.34 500.44 L 703.34 500.06 L 705.35 500.06 L 707.35 500.06 L 709.35 499.53 L 711.36 499.24 L 713.36 499.22 L 715.37 499.22 L 717.37 499.22 L 719.38 498.92 L 721.38 498.57 L 723.39 498.30 L 725.39 497.93 L 727.39 497.93 L 729.40 497.78 L 731.40 497.76 L 733.41 497.76 L 735.41 497.76 L 737.42 497.76 L 739.42 497.12 L 741.42 497.12 L 743.43 497.07 L 745.43 496.77 L 747.44 496.33 L 749.44 496.11 L 751.45 495.80 L 753.45 495.82 L 755.45 495.82 L 757.46 495.27 L 759.46 495.24 L 761.47 495.19 L 763.47 494.85 L 765.48 494.85 L 767.48 494.40 L 769.48 494.00 L 771.49 494.00 L 773.49 493.30 L 775.50 493.12 L 777.50 492.96 L 779.51 492.96 L 781.51 492.76 L 783.52 492.76 L 785.52 492.76 L 787.52 492.76 L 789.53 492.76 L 791.53 492.47 L 793.54 492.12 L 795.54 492.12 L 797.55 491.80 L 799.55 491.80 L 801.55 491.37 L 803.56 490.62 L 805.56 490.61 L 807.57 490.58 L 809.57 490.50 L 811.58 490.45 L 813.58 490.40 L 815.58 489.80 L 817.59 489.80 L 819.59 489.80 L 821.60 489.49 L 823.60 489.08 L 825.61 488.80 L 827.61 488.52 L 829.61 487.77 L 831.62 487.77 L 833.62 487.77 L 835.63 487.77 L 837.63 487.77 L 839.64 487.41 L 841.64 487.38 L 843.65 486.48 L 845.65 486.46 L 847.65 486.45 L 849.66 486.45 L 851.66 486.45 L 853.67 486.45 L 855.67 486.35 L 857.68 486.11 L 859.68 485.92 L 861.68 485.92 L 863.69 485.92 L 865.69 485.92 L 867.70 485.92 L 869.70 485.92 L 871.71 485.92 L 873.71 485.92 L 875.71 485.74 L 877.72 485.60 L 879.72 485.59 L 881.73 485.59 L 883.73 485.59 L 885.74 485.59 L 887.74 484.90 L 889.74 484.75 L 891.75 484.71 L 893.75 484.10 L 895.76 484.10 L 897.76 483.78 L 899.77 483.53 L 901.77 483.28 L 903.77 483.04 L 905.78 483.03 L 907.78 482.79 L 909.79 482.77 L 911.79 482.77 L 913.80 482.75 L 915.80 482.74 L 917.81 482.25 L 919.81 481.83 L 921.81 481.37 L 923.82 481.08 L 925.82 480.69 L 927.83 480.69 L 929.83 480.06 L 931.84 480.06 L 933.84 480.06 L 935.84 479.69 L 937.85 479.52 L 939.85 479.37 L 941.86 479.33 L 943.86 479.06 L 945.87 478.72 L 947.87 478.27 L 949.87 477.91 L 951.88 477.92 L 953.88 477.91 L 955.89 477.90 L 957.89 477.37 L 959.90 477.37 L 961.90 477.37 L 963.90 477.37 L 965.91 477.24 L 967.91 477.12 L 969.92 477.02 L 971.92 476.94 L 973.93 476.82 L 975.93 476.73 L 977.94 476.73 L 979.94 476.73 L 981.94 476.41 L 983.95 476.04 L 985.95 475.75 L 987.96 475.44 L 989.96 475.15 L 991.97 474.67 L 993.97 474.67 L 995.97 474.19 L 997.98 474.19 L 999.98 474.19 L 1001.99 473.64 L 1003.99 473.45 L 1006.00 473.45 L 1008.00 473.45" fill="none" stroke="#f97316" stroke-width="3" stroke-linejoin="round" stroke-linecap="round"/>

<line x1="82" y1="586" x2="112" y2="586" stroke="#2563eb" stroke-width="3.6"/>
<text x="122" y="590" class="legend">BPC</text>
<line x1="186" y1="586" x2="216" y2="586" stroke="#f97316" stroke-width="3"/>
<text x="226" y="590" class="legend">Python LOC</text>
<text x="1008" y="590" text-anchor="end" class="tick">model commit index</text>
</svg>
